<svg xmlns="http://www.w3.org/2000/svg" width="512" height="512" viewBox="0 0 512 512">
  <defs>
    <linearGradient id="bg" x1="0%" y1="0%" x2="100%" y2="100%">
      <stop offset="0%" style="stop-color:#0066cc"/>
      <stop offset="100%" style="stop-color:#0088ff"/>
    </linearGradient>
  </defs>
  <rect width="512" height="512" rx="80" fill="url(#bg)"/>
  <path d="M256 96c-84 0-152 63.5-152 141.5 0 25 7 48.2 18.7 68.3L106 400l93.5-24.5c19.5 10.6 41.7 16.5 56.5 16.5 84 0 152-63.5 152-141.5S340 96 256 96zm0 253c-19.2 0-38-5.2-54.3-14.7l-4-2.4-40.6 10.7 10.9-39.5-2.5-4c-10.7-17.3-16.5-37.3-16.5-58.1 0-62.8 51.3-113.5 113.5-113.5S369.5 178.7 369.5 241.5 318.2 349 256 349z" fill="white"/>
  <path d="M319 279c-3.4-1.7-20-9.9-23.2-11s-5.4-1.7-7.6 1.7c-2.3 3.3-9 11-11.1 13.3-2 2.3-4.1 2.6-7.5.9-3.4-1.7-14.4-5.3-27.5-16.9-10.2-9-17-20-19-23.4-2-3.4-.2-5.2 1.5-6.9 1.5-1.5 3.4-4 5.1-6 1.7-2 2.3-3.4 3.4-5.6 1.1-2.3.6-4.2-.3-5.9-.9-1.7-7.6-18.4-10.4-25.2-2.7-6.6-5.5-5.7-7.6-5.8-2 0-4.2-.1-6.4-.1-2.3 0-5.9.9-9 4.2-3.1 3.3-12 11.7-12 28.5s12.3 33.1 14 35.4c1.7 2.3 24.2 37 58.7 51.9 8.2 3.5 14.6 5.6 19.6 7.2 8.2 2.6 15.7 2.3 21.6 1.4 6.6-1 20-8.2 22.8-16.1 2.8-7.9 2.8-14.7 2-16.1-.9-1.4-3.2-2.3-6.6-4z" fill="white"/>
</svg>
