<svg xmlns="http://www.w3.org/2000/svg" width="192" height="192" viewBox="0 0 192 192">
  <defs>
    <linearGradient id="bg" x1="0%" y1="0%" x2="100%" y2="100%">
      <stop offset="0%" style="stop-color:#0066cc"/>
      <stop offset="100%" style="stop-color:#0088ff"/>
    </linearGradient>
  </defs>
  <rect width="192" height="192" rx="32" fill="url(#bg)"/>
  <path d="M96 40C64.5 40 39 63.5 39 92.5c0 9.3 2.6 18 7 25.5L40 152l35-9.2c7.3 4 15.6 6.2 21 6.2 31.5 0 57-23.5 57-52.5S127.5 40 96 40zm0 95c-7.2 0-14.2-1.9-20.3-5.5l-1.5-.9-15.2 4 4.1-14.8-.9-1.5c-4-6.5-6.2-14-6.2-21.8 0-23.5 19.2-42.5 42.5-42.5S138.5 71 138.5 94.5 119 135 96 135z" fill="white"/>
  <path d="M119.5 104.5c-1.3-.6-7.5-3.7-8.7-4.1-1.2-.4-2-.6-2.9.6-.9 1.2-3.4 4.1-4.2 5-.8.9-1.5 1-2.8.3-1.3-.6-5.4-2-10.3-6.3-3.8-3.4-6.4-7.5-7.1-8.8-.7-1.3-.1-2 .6-2.6.6-.6 1.3-1.5 1.9-2.2.6-.7.9-1.2 1.3-2 .4-.8.2-1.5-.1-2.2-.3-.6-2.9-6.9-3.9-9.4-1-2.5-2.1-2.2-2.9-2.2-.7 0-1.5-.1-2.4-.1-.8 0-2.2.3-3.4 1.5-1.2 1.3-4.5 4.4-4.5 10.7s4.6 12.4 5.3 13.3c.6.9 9.1 13.9 22 19.5 3.1 1.3 5.5 2.1 7.3 2.7 3.1 1 5.9.9 8.1.5 2.5-.4 7.5-3.1 8.6-6 1-3 1-5.5.7-6-.3-.5-1.2-.9-2.5-1.5z" fill="white"/>
</svg>
